<svg width="492" height="965" viewBox="0 0 492 965" fill="none" xmlns="http://www.w3.org/2000/svg">
<rect x="123" y="793" width="22" height="138" rx="11" transform="rotate(-90 123 793)" fill="#035177"/>
<rect x="251" y="938" width="22" height="227" rx="11" transform="rotate(-90 251 938)" fill="#035177"/>
<rect x="7" y="675" width="22" height="138" rx="11" transform="rotate(-90 7 675)" fill="#035177"/>
<rect y="398" width="22" height="138" rx="11" transform="rotate(-90 0 398)" fill="#035177"/>
<rect x="240" y="631" width="22" height="228" rx="11" transform="rotate(-90 240 631)" fill="#035177"/>
<rect x="123" y="510" width="22" height="345" rx="11" transform="rotate(-90 123 510)" fill="#035177"/>
<rect x="134" y="253" width="22" height="334" rx="11" transform="rotate(-90 134 253)" fill="#035177"/>
<rect x="123" y="70" width="22" height="879" rx="11" fill="#035177"/>
<rect x="239" y="609" width="22" height="340" rx="11" fill="#035177"/>
<rect x="153" y="685" width="76" height="76" rx="20" fill="#219EBC"/>
<rect x="37" y="566" width="78" height="76" rx="20" fill="#219EBC"/>
<rect x="270" y="642" width="100" height="100" rx="20" fill="#219EBC"/>
<rect x="161" y="119" width="100" height="100" rx="20" fill="#219EBC"/>
<rect x="276" y="118" width="100" height="100" rx="20" fill="#219EBC"/>
<rect x="392" y="119" width="100" height="100" rx="20" fill="#219EBC"/>
<rect x="276" y="20" width="182" height="80" rx="20" fill="#219EBC"/>
<rect x="161" width="100" height="100" rx="20" fill="#219EBC"/>
<rect x="153" y="521" width="156" height="78" rx="20" fill="#219EBC"/>
<rect x="153" y="529" width="78" height="146" rx="20" fill="#219EBC"/>
<rect x="276" y="761" width="94" height="145" rx="20" fill="#219EBC"/>
<rect x="37" y="409" width="78" height="146" rx="20" fill="#219EBC"/>
<rect x="153" y="803" width="78" height="76" rx="20" fill="#219EBC"/>
<rect x="389" y="644" width="69" height="262" rx="20" fill="#219EBC"/>
<rect x="320" y="523" width="138" height="76" rx="20" fill="#219EBC"/>
<rect x="153" y="889" width="78" height="76" rx="20" fill="#219EBC"/>
</svg>
